<?xml version="1.0" encoding="UTF-8" standalone="no"?>
<!DOCTYPE svg PUBLIC "-//W3C//DTD SVG 1.1//EN"
 "http://www.w3.org/Graphics/SVG/1.1/DTD/svg11.dtd">
<!-- Generated by graphviz version 2.34.0 (20130907.0111)
 -->
<!-- Title: PYWEB Pages: 1 -->
<svg width="1635pt" height="476pt"
 viewBox="0.00 0.00 1635.00 476.00" xmlns="http://www.w3.org/2000/svg" xmlns:xlink="http://www.w3.org/1999/xlink">
<g id="graph0" class="graph" transform="scale(1 1) rotate(0) translate(4 472)">
<title>PYWEB</title>
<polygon fill="white" stroke="white" points="-4,4 -4,-472 1631,-472 1631,4 -4,4"/>
<!-- lab -->
<g id="node1" class="node"><title>lab</title>
<ellipse fill="none" stroke="blue" cx="287" cy="-306" rx="27" ry="18"/>
<text text-anchor="middle" x="287" y="-302.3" font-family="Times New Roman,serif" font-size="14.00">lab</text>
</g>
<!-- web -->
<g id="node2" class="node"><title>web</title>
<ellipse fill="none" stroke="blue" cx="213" cy="-162" rx="27" ry="18"/>
<text text-anchor="middle" x="213" y="-158.3" font-family="Times New Roman,serif" font-size="14.00">web</text>
</g>
<!-- lab&#45;&gt;web -->
<g id="edge1" class="edge"><title>lab&#45;&gt;web</title>
<path fill="none" stroke="black" d="M278.511,-288.711C265.755,-264.232 241.526,-217.739 226.377,-188.67"/>
<polygon fill="black" stroke="black" points="229.343,-186.787 221.618,-179.537 223.135,-190.022 229.343,-186.787"/>
</g>
<!-- iframe -->
<g id="node3" class="node"><title>iframe</title>
<ellipse fill="none" stroke="blue" cx="384" cy="-90" rx="33.2209" ry="18"/>
<text text-anchor="middle" x="384" y="-86.3" font-family="Times New Roman,serif" font-size="14.00">iframe</text>
</g>
<!-- lab&#45;&gt;iframe -->
<g id="edge2" class="edge"><title>lab&#45;&gt;iframe</title>
<path fill="none" stroke="black" d="M294.45,-288.563C311.195,-251.621 351.92,-161.775 372.167,-117.105"/>
<polygon fill="black" stroke="black" points="375.45,-118.341 376.39,-107.788 369.074,-115.451 375.45,-118.341"/>
</g>
<!-- tools -->
<g id="node5" class="node"><title>tools</title>
<ellipse fill="none" stroke="blue" cx="112" cy="-234" rx="28.3955" ry="18"/>
<text text-anchor="middle" x="112" y="-230.3" font-family="Times New Roman,serif" font-size="14.00">tools</text>
</g>
<!-- lab&#45;&gt;tools -->
<g id="edge3" class="edge"><title>lab&#45;&gt;tools</title>
<path fill="none" stroke="black" d="M264.48,-295.992C234.019,-283.807 179.487,-261.995 144.563,-248.025"/>
<polygon fill="black" stroke="black" points="145.854,-244.772 135.269,-244.308 143.254,-251.271 145.854,-244.772"/>
</g>
<!-- doc -->
<g id="node6" class="node"><title>doc</title>
<ellipse fill="none" stroke="blue" cx="82" cy="-90" rx="27" ry="18"/>
<text text-anchor="middle" x="82" y="-86.3" font-family="Times New Roman,serif" font-size="14.00">doc</text>
</g>
<!-- lab&#45;&gt;doc -->
<g id="edge4" class="edge"><title>lab&#45;&gt;doc</title>
<path fill="none" stroke="black" d="M260.38,-302.392C208.49,-296.702 96.8813,-281.272 74,-252 43.7249,-213.269 58.7644,-151.886 71.1857,-117.173"/>
<polygon fill="black" stroke="black" points="74.4964,-118.313 74.7414,-107.721 67.9446,-115.848 74.4964,-118.313"/>
</g>
<!-- py3 -->
<g id="node8" class="node"><title>py3</title>
<ellipse fill="none" stroke="blue" cx="420" cy="-234" rx="27" ry="18"/>
<text text-anchor="middle" x="420" y="-230.3" font-family="Times New Roman,serif" font-size="14.00">py3</text>
</g>
<!-- lab&#45;&gt;py3 -->
<g id="edge5" class="edge"><title>lab&#45;&gt;py3</title>
<path fill="none" stroke="black" d="M307.49,-294.216C329.587,-282.586 364.979,-263.959 390.164,-250.703"/>
<polygon fill="black" stroke="black" points="392.049,-253.666 399.268,-245.912 388.788,-247.472 392.049,-253.666"/>
</g>
<!-- os -->
<g id="node13" class="node"><title>os</title>
<ellipse fill="none" stroke="black" cx="27" cy="-18" rx="27" ry="18"/>
<text text-anchor="middle" x="27" y="-14.3" font-family="Times New Roman,serif" font-size="14.00">os</text>
</g>
<!-- lab&#45;&gt;os -->
<g id="edge6" class="edge"><title>lab&#45;&gt;os</title>
<path fill="none" stroke="black" d="M260.222,-302.512C205.432,-296.864 83.3041,-281.241 55,-252 0.994354,-196.207 11.8817,-94.3483 20.9718,-45.9362"/>
<polygon fill="black" stroke="black" points="24.4474,-46.4042 22.9746,-35.9122 17.5831,-45.0326 24.4474,-46.4042"/>
</g>
<!-- json -->
<g id="node14" class="node"><title>json</title>
<ellipse fill="none" stroke="black" cx="207" cy="-18" rx="27" ry="18"/>
<text text-anchor="middle" x="207" y="-14.3" font-family="Times New Roman,serif" font-size="14.00">json</text>
</g>
<!-- lab&#45;&gt;json -->
<g id="edge7" class="edge"><title>lab&#45;&gt;json</title>
<path fill="none" stroke="black" d="M269.28,-292.087C243.068,-271.736 195.112,-229.396 177,-180 160.146,-134.035 179.537,-77.0664 194.039,-44.6909"/>
<polygon fill="black" stroke="black" points="197.284,-46.0145 198.338,-35.4722 190.94,-43.0563 197.284,-46.0145"/>
</g>
<!-- random -->
<g id="node15" class="node"><title>random</title>
<ellipse fill="none" stroke="black" cx="976" cy="-90" rx="38.0212" ry="18"/>
<text text-anchor="middle" x="976" y="-86.3" font-family="Times New Roman,serif" font-size="14.00">random</text>
</g>
<!-- lab&#45;&gt;random -->
<g id="edge8" class="edge"><title>lab&#45;&gt;random</title>
<path fill="none" stroke="black" d="M313.693,-302.214C419.322,-290.806 807.302,-245.156 910,-180 934.118,-164.698 952.462,-137.206 963.617,-116.812"/>
<polygon fill="black" stroke="black" points="966.832,-118.216 968.369,-107.733 960.63,-114.969 966.832,-118.216"/>
</g>
<!-- web&#45;&gt;iframe -->
<g id="edge45" class="edge"><title>web&#45;&gt;iframe</title>
<path fill="none" stroke="black" d="M235.355,-151.849C264.194,-140.043 314.688,-119.373 348.727,-105.439"/>
<polygon fill="black" stroke="black" points="350.361,-108.552 358.29,-101.525 347.709,-102.074 350.361,-108.552"/>
</g>
<!-- web&#45;&gt;doc -->
<g id="edge46" class="edge"><title>web&#45;&gt;doc</title>
<path fill="none" stroke="black" d="M192.531,-150.063C170.709,-138.402 135.961,-119.834 111.254,-106.632"/>
<polygon fill="black" stroke="black" points="112.794,-103.487 102.325,-101.861 109.495,-109.661 112.794,-103.487"/>
</g>
<!-- web&#45;&gt;json -->
<g id="edge47" class="edge"><title>web&#45;&gt;json</title>
<path fill="none" stroke="black" d="M212.276,-143.871C211.254,-119.67 209.375,-75.2108 208.157,-46.3932"/>
<polygon fill="black" stroke="black" points="211.645,-46.0326 207.726,-36.1893 204.652,-46.3281 211.645,-46.0326"/>
</g>
<!-- inspect -->
<g id="node22" class="node"><title>inspect</title>
<ellipse fill="none" stroke="black" cx="114" cy="-18" rx="36.096" ry="18"/>
<text text-anchor="middle" x="114" y="-14.3" font-family="Times New Roman,serif" font-size="14.00">inspect</text>
</g>
<!-- web&#45;&gt;inspect -->
<g id="edge48" class="edge"><title>web&#45;&gt;inspect</title>
<path fill="none" stroke="black" d="M202.027,-145.261C184.872,-120.655 151.562,-72.8769 131.198,-43.6683"/>
<polygon fill="black" stroke="black" points="133.917,-41.4474 125.326,-35.246 128.174,-45.4508 133.917,-41.4474"/>
</g>
<!-- re -->
<g id="node23" class="node"><title>re</title>
<ellipse fill="none" stroke="black" cx="268" cy="-90" rx="27" ry="18"/>
<text text-anchor="middle" x="268" y="-86.3" font-family="Times New Roman,serif" font-size="14.00">re</text>
</g>
<!-- web&#45;&gt;re -->
<g id="edge49" class="edge"><title>web&#45;&gt;re</title>
<path fill="none" stroke="black" d="M224.934,-145.811C232.214,-136.546 241.663,-124.52 249.854,-114.094"/>
<polygon fill="black" stroke="black" points="252.663,-116.185 256.089,-106.159 247.159,-111.86 252.663,-116.185"/>
</g>
<!-- mapper -->
<g id="node7" class="node"><title>mapper</title>
<ellipse fill="none" stroke="blue" cx="384" cy="-18" rx="38.0212" ry="18"/>
<text text-anchor="middle" x="384" y="-14.3" font-family="Times New Roman,serif" font-size="14.00">mapper</text>
</g>
<!-- iframe&#45;&gt;mapper -->
<g id="edge24" class="edge"><title>iframe&#45;&gt;mapper</title>
<path fill="none" stroke="black" d="M384,-71.6966C384,-63.9827 384,-54.7125 384,-46.1124"/>
<polygon fill="black" stroke="black" points="387.5,-46.1043 384,-36.1043 380.5,-46.1044 387.5,-46.1043"/>
</g>
<!-- base64 -->
<g id="node20" class="node"><title>base64</title>
<ellipse fill="none" stroke="black" cx="665" cy="-18" rx="36.096" ry="18"/>
<text text-anchor="middle" x="665" y="-14.3" font-family="Times New Roman,serif" font-size="14.00">base64</text>
</g>
<!-- iframe&#45;&gt;base64 -->
<g id="edge25" class="edge"><title>iframe&#45;&gt;base64</title>
<path fill="none" stroke="black" d="M409.072,-78.0605C414.587,-75.8776 420.441,-73.7281 426,-72 492.925,-51.1939 572.797,-35.2013 621.168,-26.4538"/>
<polygon fill="black" stroke="black" points="622.061,-29.8499 631.29,-24.6463 620.83,-22.9589 622.061,-29.8499"/>
</g>
<!-- hashlib -->
<g id="node21" class="node"><title>hashlib</title>
<ellipse fill="none" stroke="black" cx="525" cy="-18" rx="36.096" ry="18"/>
<text text-anchor="middle" x="525" y="-14.3" font-family="Times New Roman,serif" font-size="14.00">hashlib</text>
</g>
<!-- iframe&#45;&gt;hashlib -->
<g id="edge26" class="edge"><title>iframe&#45;&gt;hashlib</title>
<path fill="none" stroke="black" d="M407.6,-77.2836C430.502,-65.9139 465.488,-48.545 491.313,-35.7239"/>
<polygon fill="black" stroke="black" points="492.974,-38.8073 500.374,-31.2256 489.861,-32.5374 492.974,-38.8073"/>
</g>
<!-- gui -->
<g id="node4" class="node"><title>gui</title>
<ellipse fill="none" stroke="blue" cx="1253" cy="-450" rx="27" ry="18"/>
<text text-anchor="middle" x="1253" y="-446.3" font-family="Times New Roman,serif" font-size="14.00">gui</text>
</g>
<!-- gui&#45;&gt;lab -->
<g id="edge9" class="edge"><title>gui&#45;&gt;lab</title>
<path fill="none" stroke="black" d="M1226.91,-445.165C1092.64,-425.428 479.734,-335.331 323.386,-312.349"/>
<polygon fill="black" stroke="black" points="323.746,-308.864 313.343,-310.872 322.728,-315.79 323.746,-308.864"/>
</g>
<!-- reloader -->
<g id="node9" class="node"><title>reloader</title>
<ellipse fill="none" stroke="blue" cx="1145" cy="-378" rx="39.9464" ry="18"/>
<text text-anchor="middle" x="1145" y="-374.3" font-family="Times New Roman,serif" font-size="14.00">reloader</text>
</g>
<!-- gui&#45;&gt;reloader -->
<g id="edge10" class="edge"><title>gui&#45;&gt;reloader</title>
<path fill="none" stroke="black" d="M1234.19,-436.807C1218.01,-426.324 1194.38,-411.007 1175.51,-398.773"/>
<polygon fill="black" stroke="black" points="1177.24,-395.725 1166.94,-393.224 1173.43,-401.6 1177.24,-395.725"/>
</g>
<!-- tkinter -->
<g id="node11" class="node"><title>tkinter</title>
<ellipse fill="none" stroke="red" cx="1422" cy="-378" rx="33.2209" ry="18"/>
<text text-anchor="middle" x="1422" y="-374.3" font-family="Times New Roman,serif" font-size="14.00">tkinter</text>
</g>
<!-- gui&#45;&gt;tkinter -->
<g id="edge11" class="edge"><title>gui&#45;&gt;tkinter</title>
<path fill="none" stroke="black" d="M1275.44,-439.705C1303.96,-427.891 1353.5,-407.371 1387.01,-393.494"/>
<polygon fill="black" stroke="black" points="1388.52,-396.654 1396.42,-389.594 1385.85,-390.187 1388.52,-396.654"/>
</g>
<!-- tkinter.scrolledtext -->
<g id="node12" class="node"><title>tkinter.scrolledtext</title>
<ellipse fill="none" stroke="red" cx="1550" cy="-378" rx="77.0154" ry="18"/>
<text text-anchor="middle" x="1550" y="-374.3" font-family="Times New Roman,serif" font-size="14.00">tkinter.scrolledtext</text>
</g>
<!-- gui&#45;&gt;tkinter.scrolledtext -->
<g id="edge12" class="edge"><title>gui&#45;&gt;tkinter.scrolledtext</title>
<path fill="none" stroke="black" d="M1278.07,-443.092C1323.93,-432.282 1422.61,-409.025 1487.63,-393.701"/>
<polygon fill="black" stroke="black" points="1488.83,-397.013 1497.76,-391.312 1487.22,-390.2 1488.83,-397.013"/>
</g>
<!-- sys -->
<g id="node16" class="node"><title>sys</title>
<ellipse fill="none" stroke="black" cx="1003" cy="-162" rx="27" ry="18"/>
<text text-anchor="middle" x="1003" y="-158.3" font-family="Times New Roman,serif" font-size="14.00">sys</text>
</g>
<!-- gui&#45;&gt;sys -->
<g id="edge13" class="edge"><title>gui&#45;&gt;sys</title>
<path fill="none" stroke="black" d="M1226.83,-444.891C1174.1,-435.024 1056.08,-404.535 1009,-324 984.669,-282.383 990.38,-223.83 996.709,-190.007"/>
<polygon fill="black" stroke="black" points="1000.19,-190.444 998.749,-179.947 993.332,-189.053 1000.19,-190.444"/>
</g>
<!-- threading -->
<g id="node17" class="node"><title>threading</title>
<ellipse fill="none" stroke="black" cx="1145" cy="-162" rx="44.2946" ry="18"/>
<text text-anchor="middle" x="1145" y="-158.3" font-family="Times New Roman,serif" font-size="14.00">threading</text>
</g>
<!-- gui&#45;&gt;threading -->
<g id="edge14" class="edge"><title>gui&#45;&gt;threading</title>
<path fill="none" stroke="black" d="M1270.09,-435.864C1303.62,-408.421 1372.24,-342.994 1342,-288 1309.66,-229.181 1236.64,-194.134 1189.16,-176.729"/>
<polygon fill="black" stroke="black" points="1190.03,-173.325 1179.44,-173.28 1187.69,-179.922 1190.03,-173.325"/>
</g>
<!-- doc&#45;&gt;os -->
<g id="edge21" class="edge"><title>doc&#45;&gt;os</title>
<path fill="none" stroke="black" d="M70.0658,-73.811C62.7864,-64.5464 53.3374,-52.5203 45.1456,-42.0944"/>
<polygon fill="black" stroke="black" points="47.8413,-39.8601 38.9109,-34.1593 42.337,-44.1849 47.8413,-39.8601"/>
</g>
<!-- doc&#45;&gt;json -->
<g id="edge22" class="edge"><title>doc&#45;&gt;json</title>
<path fill="none" stroke="black" d="M102.083,-77.7533C122.676,-66.2213 154.901,-48.1754 178.206,-35.1249"/>
<polygon fill="black" stroke="black" points="179.951,-38.1587 186.966,-30.2188 176.531,-32.0511 179.951,-38.1587"/>
</g>
<!-- doc&#45;&gt;inspect -->
<g id="edge23" class="edge"><title>doc&#45;&gt;inspect</title>
<path fill="none" stroke="black" d="M89.5836,-72.411C93.3146,-64.2493 97.8993,-54.2203 102.084,-45.0653"/>
<polygon fill="black" stroke="black" points="105.274,-46.5061 106.249,-35.9562 98.9078,-43.5958 105.274,-46.5061"/>
</g>
<!-- py3&#45;&gt;web -->
<g id="edge27" class="edge"><title>py3&#45;&gt;web</title>
<path fill="none" stroke="black" d="M395.591,-225.908C363.031,-216.288 303.713,-198.206 254,-180 250.889,-178.861 247.666,-177.624 244.457,-176.356"/>
<polygon fill="black" stroke="black" points="245.578,-173.034 234.995,-172.519 242.947,-179.52 245.578,-173.034"/>
</g>
<!-- py3&#45;&gt;iframe -->
<g id="edge28" class="edge"><title>py3&#45;&gt;iframe</title>
<path fill="none" stroke="black" d="M415.391,-215.832C412.627,-205.467 409.064,-191.987 406,-180 400.711,-159.312 394.924,-135.866 390.613,-118.233"/>
<polygon fill="black" stroke="black" points="393.907,-116.968 388.137,-108.082 387.106,-118.627 393.907,-116.968"/>
</g>
<!-- py3&#45;&gt;os -->
<g id="edge29" class="edge"><title>py3&#45;&gt;os</title>
<path fill="none" stroke="black" d="M392.919,-233.512C321.968,-233.209 130.346,-221.454 46,-108 32.7791,-90.2165 28.3418,-65.2049 27.032,-46.2232"/>
<polygon fill="black" stroke="black" points="30.5234,-45.9491 26.5846,-36.1136 23.5302,-46.2586 30.5234,-45.9491"/>
</g>
<!-- py3&#45;&gt;json -->
<g id="edge30" class="edge"><title>py3&#45;&gt;json</title>
<path fill="none" stroke="black" d="M411.438,-216.543C394.464,-185.167 353.844,-116.005 304,-72 284.837,-55.0824 259.355,-41.421 239.317,-32.2075"/>
<polygon fill="black" stroke="black" points="240.529,-28.9157 229.969,-28.047 237.682,-35.3108 240.529,-28.9157"/>
</g>
<!-- py3&#45;&gt;sys -->
<g id="edge31" class="edge"><title>py3&#45;&gt;sys</title>
<path fill="none" stroke="black" d="M446.906,-231.191C522.457,-225.892 742.852,-208.93 924,-180 938.462,-177.69 954.266,-174.438 967.912,-171.395"/>
<polygon fill="black" stroke="black" points="968.896,-174.761 977.869,-169.128 967.342,-167.935 968.896,-174.761"/>
</g>
<!-- py3&#45;&gt;threading -->
<g id="edge32" class="edge"><title>py3&#45;&gt;threading</title>
<path fill="none" stroke="black" d="M446.921,-231.406C533.229,-226.142 810.708,-208.041 1039,-180 1057.4,-177.74 1077.51,-174.669 1095.22,-171.759"/>
<polygon fill="black" stroke="black" points="1096.05,-175.169 1105.33,-170.072 1094.89,-168.265 1096.05,-175.169"/>
</g>
<!-- ssl -->
<g id="node19" class="node"><title>ssl</title>
<ellipse fill="none" stroke="black" cx="462" cy="-90" rx="27" ry="18"/>
<text text-anchor="middle" x="462" y="-86.3" font-family="Times New Roman,serif" font-size="14.00">ssl</text>
</g>
<!-- py3&#45;&gt;ssl -->
<g id="edge33" class="edge"><title>py3&#45;&gt;ssl</title>
<path fill="none" stroke="black" d="M422.591,-216.008C425.591,-197.902 431.147,-168.527 439,-144 441.934,-134.838 445.897,-125.103 449.707,-116.509"/>
<polygon fill="black" stroke="black" points="452.905,-117.933 453.881,-107.383 446.539,-115.021 452.905,-117.933"/>
</g>
<!-- py3&#45;&gt;base64 -->
<g id="edge34" class="edge"><title>py3&#45;&gt;base64</title>
<path fill="none" stroke="black" d="M447.003,-232.01C542.52,-228.237 860.284,-213.256 890,-180 952.766,-109.759 787.324,-52.6526 706.484,-29.7783"/>
<polygon fill="black" stroke="black" points="707.172,-26.3369 696.6,-27.0328 705.298,-33.0816 707.172,-26.3369"/>
</g>
<!-- py3&#45;&gt;re -->
<g id="edge35" class="edge"><title>py3&#45;&gt;re</title>
<path fill="none" stroke="black" d="M397.899,-223.322C378.524,-214.104 350.351,-198.856 330,-180 309.938,-161.412 292.684,-135.27 281.51,-116.127"/>
<polygon fill="black" stroke="black" points="284.509,-114.322 276.526,-107.356 278.423,-117.78 284.509,-114.322"/>
</g>
<!-- http.server -->
<g id="node24" class="node"><title>http.server</title>
<ellipse fill="none" stroke="black" cx="582" cy="-162" rx="49.0941" ry="18"/>
<text text-anchor="middle" x="582" y="-158.3" font-family="Times New Roman,serif" font-size="14.00">http.server</text>
</g>
<!-- py3&#45;&gt;http.server -->
<g id="edge36" class="edge"><title>py3&#45;&gt;http.server</title>
<path fill="none" stroke="black" d="M442.186,-223.414C467.866,-212.317 510.657,-193.827 542.149,-180.22"/>
<polygon fill="black" stroke="black" points="543.737,-183.346 551.528,-176.167 540.96,-176.92 543.737,-183.346"/>
</g>
<!-- socketserver -->
<g id="node25" class="node"><title>socketserver</title>
<ellipse fill="none" stroke="black" cx="706" cy="-162" rx="56.3173" ry="18"/>
<text text-anchor="middle" x="706" y="-158.3" font-family="Times New Roman,serif" font-size="14.00">socketserver</text>
</g>
<!-- py3&#45;&gt;socketserver -->
<g id="edge37" class="edge"><title>py3&#45;&gt;socketserver</title>
<path fill="none" stroke="black" d="M445.106,-227.087C485.99,-217.428 569.476,-197.576 640,-180 644.567,-178.862 649.309,-177.667 654.06,-176.46"/>
<polygon fill="black" stroke="black" points="654.95,-179.845 663.774,-173.981 653.219,-173.062 654.95,-179.845"/>
</g>
<!-- urllib.parse -->
<g id="node26" class="node"><title>urllib.parse</title>
<ellipse fill="none" stroke="black" cx="831" cy="-162" rx="50.5427" ry="18"/>
<text text-anchor="middle" x="831" y="-158.3" font-family="Times New Roman,serif" font-size="14.00">urllib.parse</text>
</g>
<!-- py3&#45;&gt;urllib.parse -->
<g id="edge38" class="edge"><title>py3&#45;&gt;urllib.parse</title>
<path fill="none" stroke="black" d="M446.627,-230.143C505.524,-223.57 651.131,-205.923 771,-180 775.344,-179.061 779.837,-177.985 784.32,-176.842"/>
<polygon fill="black" stroke="black" points="785.29,-180.206 794.057,-174.257 783.493,-173.441 785.29,-180.206"/>
</g>
<!-- reloader&#45;&gt;lab -->
<g id="edge39" class="edge"><title>reloader&#45;&gt;lab</title>
<path fill="none" stroke="black" d="M1105.9,-373.81C962.125,-362.08 463.797,-321.424 323.824,-310.004"/>
<polygon fill="black" stroke="black" points="323.878,-306.497 313.626,-309.172 323.309,-313.474 323.878,-306.497"/>
</g>
<!-- reloader&#45;&gt;sys -->
<g id="edge40" class="edge"><title>reloader&#45;&gt;sys</title>
<path fill="none" stroke="black" d="M1109.42,-369.498C1083.93,-362.228 1050.88,-348.569 1032,-324 1002.02,-284.985 999.335,-225.039 1000.73,-190.362"/>
<polygon fill="black" stroke="black" points="1004.25,-190.227 1001.3,-180.049 997.256,-189.842 1004.25,-190.227"/>
</g>
<!-- reloader&#45;&gt;threading -->
<g id="edge41" class="edge"><title>reloader&#45;&gt;threading</title>
<path fill="none" stroke="black" d="M1145,-359.849C1145,-322.832 1145,-235.181 1145,-190.386"/>
<polygon fill="black" stroke="black" points="1148.5,-190.232 1145,-180.232 1141.5,-190.232 1148.5,-190.232"/>
</g>
<!-- os.path -->
<g id="node27" class="node"><title>os.path</title>
<ellipse fill="none" stroke="black" cx="1079" cy="-306" rx="37.5442" ry="18"/>
<text text-anchor="middle" x="1079" y="-302.3" font-family="Times New Roman,serif" font-size="14.00">os.path</text>
</g>
<!-- reloader&#45;&gt;os.path -->
<g id="edge42" class="edge"><title>reloader&#45;&gt;os.path</title>
<path fill="none" stroke="black" d="M1130.02,-361.116C1121.42,-351.987 1110.45,-340.355 1100.89,-330.217"/>
<polygon fill="black" stroke="black" points="1103.32,-327.696 1093.92,-322.821 1098.23,-332.498 1103.32,-327.696"/>
</g>
<!-- importlib -->
<g id="node28" class="node"><title>importlib</title>
<ellipse fill="none" stroke="black" cx="1217" cy="-306" rx="43.319" ry="18"/>
<text text-anchor="middle" x="1217" y="-302.3" font-family="Times New Roman,serif" font-size="14.00">importlib</text>
</g>
<!-- reloader&#45;&gt;importlib -->
<g id="edge43" class="edge"><title>reloader&#45;&gt;importlib</title>
<path fill="none" stroke="black" d="M1160.98,-361.465C1170.51,-352.195 1182.8,-340.254 1193.43,-329.917"/>
<polygon fill="black" stroke="black" points="1196.09,-332.214 1200.82,-322.734 1191.21,-327.195 1196.09,-332.214"/>
</g>
<!-- time -->
<g id="node29" class="node"><title>time</title>
<ellipse fill="none" stroke="black" cx="1306" cy="-306" rx="27" ry="18"/>
<text text-anchor="middle" x="1306" y="-302.3" font-family="Times New Roman,serif" font-size="14.00">time</text>
</g>
<!-- reloader&#45;&gt;time -->
<g id="edge44" class="edge"><title>reloader&#45;&gt;time</title>
<path fill="none" stroke="black" d="M1173.66,-365.007C1198.85,-354.403 1236.47,-338.423 1269,-324 1271.05,-323.092 1273.16,-322.149 1275.28,-321.192"/>
<polygon fill="black" stroke="black" points="1276.87,-324.313 1284.52,-316.986 1273.97,-317.941 1276.87,-324.313"/>
</g>
<!-- clihttp -->
<g id="node10" class="node"><title>clihttp</title>
<ellipse fill="none" stroke="blue" cx="481" cy="-162" rx="33.2209" ry="18"/>
<text text-anchor="middle" x="481" y="-158.3" font-family="Times New Roman,serif" font-size="14.00">clihttp</text>
</g>
<!-- clihttp&#45;&gt;iframe -->
<g id="edge15" class="edge"><title>clihttp&#45;&gt;iframe</title>
<path fill="none" stroke="black" d="M461.836,-147.17C447.488,-136.816 427.652,-122.502 411.596,-110.915"/>
<polygon fill="black" stroke="black" points="413.281,-107.815 403.124,-104.801 409.185,-113.491 413.281,-107.815"/>
</g>
<!-- clihttp&#45;&gt;random -->
<g id="edge16" class="edge"><title>clihttp&#45;&gt;random</title>
<path fill="none" stroke="black" d="M505.65,-149.99C511.564,-147.704 517.928,-145.529 524,-144 668.015,-107.747 844.217,-96.1582 927.705,-92.5589"/>
<polygon fill="black" stroke="black" points="928.052,-96.0477 937.899,-92.1396 927.764,-89.0536 928.052,-96.0477"/>
</g>
<!-- http.client -->
<g id="node18" class="node"><title>http.client</title>
<ellipse fill="none" stroke="black" cx="553" cy="-90" rx="46.2191" ry="18"/>
<text text-anchor="middle" x="553" y="-86.3" font-family="Times New Roman,serif" font-size="14.00">http.client</text>
</g>
<!-- clihttp&#45;&gt;http.client -->
<g id="edge17" class="edge"><title>clihttp&#45;&gt;http.client</title>
<path fill="none" stroke="black" d="M496.623,-145.811C506.141,-136.557 518.493,-124.548 529.209,-114.13"/>
<polygon fill="black" stroke="black" points="531.928,-116.368 536.658,-106.888 527.048,-111.35 531.928,-116.368"/>
</g>
<!-- clihttp&#45;&gt;ssl -->
<g id="edge18" class="edge"><title>clihttp&#45;&gt;ssl</title>
<path fill="none" stroke="black" d="M476.401,-144.055C474.254,-136.145 471.647,-126.54 469.244,-117.688"/>
<polygon fill="black" stroke="black" points="472.554,-116.523 466.557,-107.789 465.799,-118.357 472.554,-116.523"/>
</g>
<!-- clihttp&#45;&gt;base64 -->
<g id="edge19" class="edge"><title>clihttp&#45;&gt;base64</title>
<path fill="none" stroke="black" d="M506.862,-150.595C512.496,-148.379 518.436,-146.081 524,-144 569.028,-127.16 590.777,-140.718 626,-108 643.706,-91.5528 653.809,-65.6438 659.273,-46.0125"/>
<polygon fill="black" stroke="black" points="662.714,-46.6817 661.786,-36.1276 655.93,-44.9565 662.714,-46.6817"/>
</g>
<!-- clihttp&#45;&gt;hashlib -->
<g id="edge20" class="edge"><title>clihttp&#45;&gt;hashlib</title>
<path fill="none" stroke="black" d="M506.929,-150.598C543.635,-135.812 606.501,-110.249 608,-108 616.871,-94.6847 615.688,-86.0317 608,-72 598.365,-54.4152 580.138,-41.8189 563.213,-33.331"/>
<polygon fill="black" stroke="black" points="564.549,-30.0922 554.008,-29.0326 561.588,-36.4348 564.549,-30.0922"/>
</g>
</g>
</svg>
